<svg width="1080" height="1080" viewBox="0 0 1080 1080" fill="none" xmlns="http://www.w3.org/2000/svg">
<path d="M540.265 792C431.832 714.126 480.094 727.502 312.108 592.159L467.263 635.281C388.868 607.86 345.221 594.217 259.076 522.907C321.384 536.707 361.033 546.629 428.705 563.695C312.79 533.816 284.99 492.349 252.079 447.585C307.484 469.954 334.537 478.287 380.193 490.427C300.447 457.135 258.391 433.332 195.911 366.622C257.79 382.925 292.189 398.106 353.314 429.852C285.513 389.748 248.47 361.183 185.79 289C242.36 313.331 272.609 326.908 320.248 350.852L294.156 328.351L329.484 340.844C454.323 451.092 504.633 512.713 540.265 598.759V792Z" fill="#4180FB"/>
<path d="M540.315 792C648.748 714.126 600.486 727.502 768.472 592.159L613.317 635.281C691.712 607.86 735.359 594.217 821.504 522.907C759.196 536.707 719.547 546.629 651.875 563.695C767.79 533.816 795.59 492.349 828.501 447.585C773.096 469.954 746.043 478.287 700.387 490.427C780.133 457.135 822.189 433.332 884.669 366.622C822.79 382.925 788.391 398.106 727.266 429.852C795.068 389.748 832.11 361.183 894.79 289C838.22 313.331 807.971 326.908 760.332 350.852L786.424 328.351L751.096 340.844C626.257 451.092 575.947 512.713 540.315 598.759V792Z" fill="#FAAF3F"/>
</svg>
